<svg width="400" height="480" viewBox="0 0 400 480" fill="none" xmlns="http://www.w3.org/2000/svg">
  <defs>
    <linearGradient id="bg" x1="50" y1="0" x2="340" y2="480" gradientUnits="userSpaceOnUse">
      <stop offset="0" stop-color="#4C6EF5" />
      <stop offset="1" stop-color="#1A1F3D" />
    </linearGradient>
    <linearGradient id="shirt" x1="180" y1="220" x2="280" y2="420" gradientUnits="userSpaceOnUse">
      <stop offset="0" stop-color="#1F2A57" />
      <stop offset="1" stop-color="#0F172A" />
    </linearGradient>
    <linearGradient id="jacket" x1="120" y1="260" x2="320" y2="460" gradientUnits="userSpaceOnUse">
      <stop offset="0" stop-color="#0B1328" />
      <stop offset="1" stop-color="#1E293B" />
    </linearGradient>
  </defs>
  <rect width="400" height="480" rx="40" fill="url(#bg)" />
  <circle cx="200" cy="170" r="90" fill="#F7E3D5" />
  <path d="M120 360C120 295 160 260 200 260C240 260 280 295 280 360V420H120V360Z" fill="url(#shirt)" />
  <path d="M90 390C90 320 136 285 200 285C264 285 310 320 310 390V440H90V390Z" fill="url(#jacket)" />
  <path d="M200 80C240 80 276 112 284 156C288 180 286 198 284 204C283 206 272 214 252 221L246 204C260 198 266 186 266 174C266 140 240 118 200 118C160 118 134 140 134 174C134 186 140 198 154 206L148 224C126 216 114 208 112 204C110 198 108 180 112 154C120 110 160 80 200 80Z" fill="#1F2A44" />
  <circle cx="174" cy="172" r="10" fill="#0F172A" />
  <circle cx="226" cy="172" r="10" fill="#0F172A" />
  <path d="M178 214C186 222 194 226 200 226C206 226 214 222 222 214" stroke="#B95A3B" stroke-width="6" stroke-linecap="round" />
  <path d="M150 168C152 160 158 156 166 156" stroke="#0F172A" stroke-width="6" stroke-linecap="round" />
  <path d="M250 168C248 160 242 156 234 156" stroke="#0F172A" stroke-width="6" stroke-linecap="round" />
  <path d="M188 250H212V272C212 280 206 286 200 286C194 286 188 280 188 272V250Z" fill="#F7E3D5" />
  <path d="M90 408C122 432 158 444 200 444C242 444 278 432 310 408" stroke="rgba(255,255,255,0.3)" stroke-width="6" stroke-linecap="round" />
  <text x="200" y="460" text-anchor="middle" font-family="'Inter', sans-serif" font-size="22" fill="rgba(255,255,255,0.85)">Elías Capasso</text>
</svg>
